# xmcd CD database file
# Copyright (C) 1993-2000  Ti Kan
#
# Track frame offsets:
#	187
#	17450
#	27450
#	38085
#	49295
#	59440
#	70825
#	81555
#	92405
#	103632
#	117670
#	130677
#
# Disc length: 1903 seconds
#
# Revision: 3
# Processed by: cddbd v1.4PL0 Copyright (c) Steve Scherf et al.
# Submitted via: xmcd 2.6 PL0
#
DISCID=9e076c0c,a0076d0c
DTITLE=Roy Acuff - Best Of Roy Acuff
DYEAR=1900
DGENRE=
TTITLE0=Will The Circle Be Unbroken
TTITLE1=Waltz Of The Wind
TTITLE2=This World Can't Stand Long
TTITLE3=Wreck On The Highway
TTITLE4=Turn Your Radio On
TTITLE5=Old Time Sunshine Song
TTITLE6=Write Me Sweetheart
TTITLE7=Jambalaya
TTITLE8=Life's Railway To Heaven
TTITLE9=Remember Me
TTITLE10=Blue Moon Of Kentucky
TTITLE11=Jole Blon
EXTD=
EXTT0=
EXTT1=
EXTT2=
EXTT3=
EXTT4=
EXTT5=
EXTT6=
EXTT7=
EXTT8=
EXTT9=
EXTT10=
EXTT11=
PLAYORDER=
